HIERARCHY
ROOT Hips
{
	OFFSET 0.000000 0.000000 0.000000
	CHANNELS 6 Xposition Yposition Zposition Zrotation Yrotation Xrotation 
	JOINT LHipJoint
	{
		OFFSET 0.000000 0.000000 0.000000
		CHANNELS 3 Zrotation Yrotation Xrotation
		JOINT LeftUpLeg
		{
			OFFSET 1.363060 -1.794630 0.839290
			CHANNELS 3 Zrotation Yrotation Xrotation
			JOINT LeftLeg
			{
				OFFSET 2.448110 -6.726130 0.000000
				CHANNELS 3 Zrotation Yrotation Xrotation
				JOINT LeftFoot
				{
					OFFSET 2.562200 -7.039590 0.000000
					CHANNELS 3 Zrotation Yrotation Xrotation
					JOINT LeftToeBase
					{
						OFFSET 0.157640 -0.433110 2.322550
						CHANNELS 3 Zrotation Yrotation Xrotation
						End Site
						{
							OFFSET 0.000000 0.000000 0.000000
						}
					}
				}
			}
		}
	}
	JOINT RHipJoint
	{
		OFFSET 0.000000 0.000000 0.000000
		CHANNELS 3 Zrotation Yrotation Xrotation
		JOINT RightUpLeg
		{
			OFFSET -1.305520 -1.794630 0.839290
			CHANNELS 3 Zrotation Yrotation Xrotation
			JOINT RightLeg
			{
				OFFSET -2.542530 -6.985550 0.000000
				CHANNELS 3 Zrotation Yrotation Xrotation
				JOINT RightFoot
				{
					OFFSET -2.568260 -7.056230 0.000000
					CHANNELS 3 Zrotation Yrotation Xrotation
					JOINT RightToeBase
					{
						OFFSET -0.164730 -0.452590 2.363150
						CHANNELS 3 Zrotation Yrotation Xrotation
						End Site
						{
							OFFSET 0.000000 0.000000 0.000000
						}
					}
				}
			}
		}
	}
	JOINT LowerBack
	{
		OFFSET 0.000000 0.000000 0.000000
		CHANNELS 3 Zrotation Yrotation Xrotation
		JOINT Spine
		{
			OFFSET 0.028270 2.035590 -0.193380
			CHANNELS 3 Zrotation Yrotation Xrotation
			JOINT Spine1
			{
				OFFSET 0.056720 2.048850 -0.042750
				CHANNELS 3 Zrotation Yrotation Xrotation
				JOINT Neck
				{
					OFFSET 0.000000 0.000000 0.000000
					CHANNELS 3 Zrotation Yrotation Xrotation
					JOINT Neck1
					{
						OFFSET -0.054170 1.746240 0.172020
						CHANNELS 3 Zrotation Yrotation Xrotation
						JOINT Head
						{
							OFFSET 0.104070 1.761360 -0.123970
							CHANNELS 3 Zrotation Yrotation Xrotation
							End Site
							{
								OFFSET 0.000000 0.000000 0.000000
							}
						}
					}
				}
				JOINT LeftShoulder
				{
					OFFSET 0.000000 0.000000 0.000000
					CHANNELS 3 Zrotation Yrotation Xrotation
					JOINT LeftArm
					{
						OFFSET 3.362410 1.200890 -0.311210
						CHANNELS 3 Zrotation Yrotation Xrotation
						JOINT LeftForeArm
						{
							OFFSET 4.983000 -0.000000 -0.000000
							CHANNELS 3 Zrotation Yrotation Xrotation
							JOINT LeftHand
							{
								OFFSET 3.483560 -0.000000 -0.000000
								CHANNELS 3 Zrotation Yrotation Xrotation
								JOINT LeftFingerBase
								{
									OFFSET 0.000000 0.000000 0.000000
									CHANNELS 3 Zrotation Yrotation Xrotation
									JOINT LeftHandIndex1
									{
										OFFSET 0.715260 -0.000000 -0.000000
										CHANNELS 3 Zrotation Yrotation Xrotation
										End Site
										{
											OFFSET 0.000000 0.000000 0.000000
										}
									}
								}
								JOINT LThumb
								{
									OFFSET 0.000000 0.000000 0.000000
									CHANNELS 3 Zrotation Yrotation Xrotation
									End Site
									{
										OFFSET 0.000000 0.000000 0.000000
									}
								}
							}
						}
					}
				}
				JOINT RightShoulder
				{
					OFFSET 0.000000 0.000000 0.000000
					CHANNELS 3 Zrotation Yrotation Xrotation
					JOINT RightArm
					{
						OFFSET -3.136600 1.374050 -0.404650
						CHANNELS 3 Zrotation Yrotation Xrotation
						JOINT RightForeArm
						{
							OFFSET -5.241900 -0.000000 -0.000000
							CHANNELS 3 Zrotation Yrotation Xrotation
							JOINT RightHand
							{
								OFFSET -3.444170 -0.000000 -0.000000
								CHANNELS 3 Zrotation Yrotation Xrotation
								JOINT RightFingerBase
								{
									OFFSET 0.000000 0.000000 0.000000
									CHANNELS 3 Zrotation Yrotation Xrotation
									JOINT RightHandIndex1
									{
										OFFSET -0.622530 -0.000000 -0.000000
										CHANNELS 3 Zrotation Yrotation Xrotation
										End Site
										{
											OFFSET 0.000000 0.000000 0.000000
										}
									}
								}
								JOINT RThumb
								{
									OFFSET 0.000000 0.000000 0.000000
									CHANNELS 3 Zrotation Yrotation Xrotation
									End Site
									{
										OFFSET 0.000000 0.000000 0.000000
									}
								}
							}
						}
					}
				}
			}
		}
	}
}
MOTION
Frames: 4
Frame Time: 0.033333
4.611907 16.517142 -27.276810 84.095364 -27.607643 -26.627179 -109.152373 -44.590296 63.800645 8.114279 13.349372 -45.887752 -90.779589 55.659901 -71.599300 -4.189800 6.467339 -2.179565 -1.213957 -0.259528 -78.369679 37.627819 -12.661024 -113.301797 17.205213 -88.368788 -54.105017 118.939827 -38.073683 -114.395500 6.463198 -10.381818 -17.845519 2.755542 -0.630707 -29.946092 -77.156575 73.985972 10.419145 -171.965389 77.286721 -172.737766 152.815002 67.995243 148.756579 -17.838366 -9.009516 9.811079 22.842593 10.196481 -1.305111 0.394833 -0.230963 0.300625 75.125413 56.009619 -28.702194 99.633446 79.287445 39.740683 -64.548845 46.837778 -115.302949 -1.204886 5.174212 88.571504 17.092377 0.723828 7.244628 -0.408016 -0.396310 0.397495 0.463590 0.371607 -0.392851 53.211526 67.891698 76.093084 46.546583 5.067247 -178.378695 10.802994 -52.577247 37.800203 14.494327 -0.812413 -17.989400 -1.988331 -22.510777 179.185872 -0.476455 0.290923 -0.397412 -0.307735 -0.574312 -0.330334 
4.457268 16.632463 -26.687843 83.834957 -26.517943 -26.847948 -111.289404 -47.151781 67.077479 5.942502 13.827107 -45.933027 -84.488884 56.912077 -63.672813 -2.630775 8.657389 4.713783 0.135307 0.204558 -77.869832 37.645224 -10.283879 -114.248105 15.361082 -87.530257 -56.201153 122.393898 -36.293421 -113.324344 8.059154 -7.771517 -14.535779 3.591320 -0.771020 -30.937477 -74.010088 74.749774 14.046068 -172.781024 76.358276 -174.506390 148.178385 67.903801 144.974756 -18.579142 -5.970784 10.997267 22.279847 5.116415 1.527276 0.400797 -0.511893 0.410076 77.662848 54.703738 -25.395299 112.447800 76.160463 53.751787 -56.732852 48.415581 -108.025813 -2.568698 2.095882 79.413017 16.424396 -0.600692 -2.519724 -0.436556 -0.206625 0.397570 0.397577 0.353386 -0.332966 51.326950 69.437549 74.170091 46.116606 7.500789 178.826681 2.282867 -52.244062 41.669306 12.989084 -4.207183 -14.453443 -21.366484 -50.608585 -163.009240 -0.292507 0.445459 -0.395959 -0.548347 -0.314968 -0.379733 
4.279159 16.756900 -26.124699 82.762210 -25.923591 -26.495973 -109.712165 -49.954156 65.118858 4.805168 15.334194 -42.394264 -84.700887 57.328646 -56.598564 1.837095 11.319598 12.959074 1.551127 0.670833 -74.309806 37.798819 -9.172659 -114.476103 13.700364 -86.733924 -57.250205 124.883392 -34.491492 -112.873871 10.082284 -7.176174 -11.359677 3.901753 -0.793640 -31.089043 -74.665568 77.507437 13.967334 -168.391130 76.329748 -171.080299 148.356254 68.990757 144.247338 -18.787104 3.725194 13.677377 19.561636 1.911711 1.894976 0.422917 -0.272090 0.317691 73.355733 52.685226 -28.272917 125.942310 72.789232 64.683478 -55.815828 46.278826 -101.957702 2.538329 5.073220 76.909394 12.201426 0.190178 -4.892819 -0.581140 -0.341491 0.307238 0.232329 0.368373 -0.347779 54.703640 69.202213 78.626413 45.925246 11.076575 175.504668 -0.504683 -51.187817 40.308946 10.118175 -4.276502 -14.238258 -34.935592 -70.619562 -130.930675 -0.544914 0.484012 -0.430686 -0.355711 -0.438861 -0.353741 
4.101165 16.871326 -25.590736 82.726080 -25.169381 -26.591744 -106.186560 -51.403200 61.362183 5.548684 16.166324 -41.206988 -89.455645 60.526443 -51.009069 7.105236 13.463535 16.522017 2.273192 0.775699 -66.622305 37.402081 -7.704627 -114.958291 8.906478 -84.757963 -54.966001 124.292161 -32.932616 -111.507909 3.934644 -8.094412 -7.312904 4.096963 -0.857837 -29.437474 -68.849139 77.450070 20.090429 -167.842050 75.862102 -169.534486 146.236114 69.784272 140.769360 -18.753414 8.289887 15.895271 21.295040 1.234768 1.408962 0.355048 -0.326174 0.348612 72.176986 50.557386 -27.334589 134.209544 70.118876 70.159500 -52.686547 44.914620 -95.755798 1.394803 1.407818 75.501054 1.688864 5.142951 -7.087841 -0.168447 -0.344961 0.344487 0.528598 0.320969 -0.391688 63.345720 68.815796 86.971906 44.843381 13.394517 173.975856 -4.176194 -52.820035 44.057668 10.467789 -1.718529 -12.247029 -50.206442 -67.916277 -101.519288 -0.292459 0.479275 -0.412941 -0.465436 -0.258812 -0.357449 
